<?xml version="1.0" encoding="utf-8"?>
<!-- Generator: Adobe Illustrator 24.3.0, SVG Export Plug-In . SVG Version: 6.00 Build 0)  -->
<svg version="1.1" xmlns="http://www.w3.org/2000/svg" xmlns:xlink="http://www.w3.org/1999/xlink" x="0px" y="0px"
	 viewBox="0 0 1000 1000" style="enable-background:new 0 0 1000 1000;" xml:space="preserve">
<style type="text/css">
	.st0{fill:#19024C;}
	.st1{fill:#3F3956;}
	.st2{fill:none;}
	.st3{fill:url(#SVGID_1_);}
	.st4{fill:url(#SVGID_2_);}
	.st5{fill:url(#SVGID_3_);}
	.st6{fill:url(#SVGID_4_);}
	.st7{fill:url(#SVGID_5_);}
	.st8{fill:url(#SVGID_6_);}
	.st9{fill:url(#SVGID_7_);}
	.st10{fill:url(#SVGID_8_);}
	.st11{fill:url(#SVGID_9_);}
	.st12{fill:url(#SVGID_10_);}
	.st13{fill:#FFFFFF;}
	.st14{fill:url(#SVGID_11_);}
	.st15{fill:url(#SVGID_12_);}
	.st16{fill:url(#SVGID_13_);}
	.st17{fill:url(#SVGID_14_);}
	.st18{fill:url(#SVGID_15_);}
	.st19{fill:url(#SVGID_16_);}
	.st20{fill:url(#SVGID_17_);}
	.st21{fill:url(#SVGID_18_);}
	.st22{fill:url(#SVGID_19_);}
	.st23{fill:url(#SVGID_20_);}
	.st24{fill:#231F20;}
	.st25{fill:url(#SVGID_21_);}
	.st26{fill:url(#SVGID_22_);}
	.st27{clip-path:url(#SVGID_24_);}
	.st28{fill:url(#SVGID_25_);}
	.st29{fill:url(#SVGID_26_);}
	.st30{fill:url(#SVGID_27_);}
	.st31{fill:url(#SVGID_28_);}
	.st32{fill:url(#SVGID_29_);}
	.st33{fill:url(#SVGID_30_);}
	.st34{fill:url(#SVGID_31_);}
	.st35{fill:url(#SVGID_32_);}
	.st36{fill:url(#SVGID_33_);}
	.st37{fill:url(#SVGID_34_);}
	.st38{clip-path:url(#SVGID_36_);}
	.st39{fill:url(#SVGID_37_);}
	.st40{fill:url(#SVGID_38_);}
	.st41{fill:url(#SVGID_39_);}
	.st42{fill:url(#SVGID_40_);}
	.st43{fill:url(#SVGID_41_);}
	.st44{fill:url(#SVGID_42_);}
	.st45{fill:url(#SVGID_43_);}
	.st46{fill:url(#SVGID_44_);}
	.st47{fill:url(#SVGID_45_);}
	.st48{fill:url(#SVGID_46_);}
	.st49{fill:url(#SVGID_47_);}
	.st50{fill:url(#SVGID_48_);}
	.st51{fill:url(#SVGID_49_);}
	.st52{fill:url(#SVGID_50_);}
	.st53{fill:url(#SVGID_51_);}
	.st54{fill:url(#SVGID_52_);}
	.st55{opacity:0.14;}
	.st56{fill:url(#SVGID_53_);}
	.st57{fill:url(#SVGID_54_);}
	.st58{fill:url(#SVGID_55_);}
	.st59{fill:url(#SVGID_56_);}
	.st60{fill:url(#SVGID_57_);}
	.st61{fill:url(#SVGID_58_);}
	.st62{fill:url(#SVGID_59_);}
	.st63{fill:url(#SVGID_60_);}
</style>
<g id="Layer_1">
</g>
<g id="Layer_2">
	<g>
		<g>
			<path class="st0" d="M440.6,547.8h3.1l-5.5,16.4h-3.5l-4.2-12l-4.2,12h-3.5l-5.5-16.4h3.1l4.2,12.3l4.3-12.3h3.2l4.3,12.3
				L440.6,547.8z"/>
			<path class="st0" d="M450.3,547.8h10.1v2.8h-9.6c-0.4,0-0.7,0.3-0.7,0.7v3.3h8.9v2.8h-8.9v3.3c0,0.4,0.3,0.7,0.7,0.7h9.6v2.8
				h-10.1c-1.7,0-3.1-1.4-3.1-3.1v-10.1C447.1,549.2,448.5,547.8,450.3,547.8z"/>
			<path class="st0" d="M487.7,557.7v3.3c0,1.7-1.4,3.1-3.1,3.1h-11v-2.8H484c0.4,0,0.7-0.3,0.7-0.7v-2.6c0-0.4-0.3-0.7-0.7-0.7
				h-7.5c-1.7,0-3.1-1.4-3.1-3.1v-3.3c0-1.7,1.4-3.1,3.1-3.1h10.8v2.8h-10.3c-0.4,0-0.7,0.3-0.7,0.7v2.6c0,0.4,0.3,0.7,0.7,0.7h7.5
				C486.3,554.6,487.7,556,487.7,557.7z"/>
			<path class="st0" d="M505.1,547.8h3v16.4h-3v-6.8h-9.9v6.8h-3v-16.4h3v6.8h9.9V547.8z"/>
			<path class="st0" d="M522.4,547.8l7.3,16.4h-3l-1.8-4h-8.6l-1.8,4h-3l7.3-16.4H522.4z M523.7,557.4l-3.1-6.9l-3.1,6.9H523.7z"/>
			<path class="st0" d="M536.1,561.4h9.2v2.8h-12.2v-16.4h3V561.4z"/>
			<path class="st0" d="M552,561.4h9.2v2.8H549v-16.4h3V561.4z"/>
			<path class="st0" d="M587.1,547.8h3v16.4h-3l-10.1-11.9v11.9h-3v-16.4h3l10.1,11.9V547.8z"/>
			<path class="st0" d="M597.9,547.8h10.1v2.8h-9.6c-0.4,0-0.7,0.3-0.7,0.7v3.3h8.9v2.8h-8.9v3.3c0,0.4,0.3,0.7,0.7,0.7h9.6v2.8
				h-10.1c-1.7,0-3.1-1.4-3.1-3.1v-10.1C594.8,549.2,596.2,547.8,597.9,547.8z"/>
			<path class="st0" d="M625.8,547.8h3.2l-7.3,16.4h-3.5l-7.3-16.4h3.2l5.8,13.1L625.8,547.8z"/>
			<path class="st0" d="M635.2,547.8h10.1v2.8h-9.6c-0.4,0-0.7,0.3-0.7,0.7v3.3h8.9v2.8h-8.9v3.3c0,0.4,0.3,0.7,0.7,0.7h9.6v2.8
				h-10.1c-1.7,0-3.1-1.4-3.1-3.1v-10.1C632.1,549.2,633.5,547.8,635.2,547.8z"/>
			<path class="st0" d="M661.5,558.4l4.9,5.8h-3.5l-4.9-5.8h-5.4v5.8h-3v-16.4h12.9c1.7,0,3.1,1.4,3.1,3.1v4.3
				c0,1.8-1.4,3.2-3.1,3.2H661.5z M662,555.5c0.4,0,0.7-0.3,0.7-0.7v-3.6c0-0.4-0.3-0.7-0.7-0.7h-9.4v5H662z"/>
			<path class="st0" d="M695.5,552.7v6.6c0,2.7-2.2,4.9-4.9,4.9h-11v-16.4h11C693.3,547.8,695.5,550,695.5,552.7z M692.5,553
				c0-1.3-1.1-2.4-2.4-2.4h-7.5v10.8h7.5c1.3,0,2.4-1.1,2.4-2.4V553z"/>
			<path class="st0" d="M703.1,547.8h10.1v2.8h-9.6c-0.4,0-0.7,0.3-0.7,0.7v3.3h8.9v2.8h-8.9v3.3c0,0.4,0.3,0.7,0.7,0.7h9.6v2.8
				h-10.1c-1.7,0-3.1-1.4-3.1-3.1v-10.1C699.9,549.2,701.3,547.8,703.1,547.8z"/>
			<path class="st0" d="M730.5,547.8h3v16.4h-3l-10.1-11.9v11.9h-3v-16.4h3l10.1,11.9V547.8z"/>
			<path class="st0" d="M746.5,558.1l-0.1,0.2v5.9h-3v-5.9l-0.1-0.2l-6.4-10.3h3.2l4.8,7.7l4.8-7.7h3.2L746.5,558.1z"/>
			<path class="st0" d="M774.8,547.8l7.3,16.4h-3l-1.8-4h-8.6l-1.8,4h-3l7.3-16.4H774.8z M776.2,557.4l-3.1-6.9l-3.1,6.9H776.2z"/>
			<path class="st0" d="M802.2,554.6h8.5v6.5c0,1.7-1.4,3.1-3.1,3.1h-9.8c-1.7,0-3.1-1.4-3.1-3.1v-10.1c0-1.7,1.4-3.1,3.1-3.1H810
				v2.8h-11.7c-0.4,0-0.7,0.3-0.7,0.7v9.4c0,0.4,0.3,0.7,0.7,0.7h8.7c0.4,0,0.7-0.3,0.7-0.7v-3.3h-5.6V554.6z"/>
			<path class="st0" d="M828.3,547.8h3V561c0,1.7-1.4,3.1-3.1,3.1h-9.8c-1.7,0-3.1-1.4-3.1-3.1v-13.3h3v12.9c0,0.4,0.3,0.7,0.7,0.7
				h8.7c0.4,0,0.7-0.3,0.7-0.7V547.8z"/>
			<path class="st0" d="M839.1,547.8h10.1v2.8h-9.6c-0.4,0-0.7,0.3-0.7,0.7v3.3h8.9v2.8H839v3.3c0,0.4,0.3,0.7,0.7,0.7h9.6v2.8
				h-10.1c-1.7,0-3.1-1.4-3.1-3.1v-10.1C836,549.2,837.4,547.8,839.1,547.8z"/>
			<path class="st0" d="M867.4,557.7v3.3c0,1.7-1.4,3.1-3.1,3.1h-11v-2.8h10.5c0.4,0,0.7-0.3,0.7-0.7v-2.6c0-0.4-0.3-0.7-0.7-0.7
				h-7.5c-1.7,0-3.1-1.4-3.1-3.1v-3.3c0-1.7,1.4-3.1,3.1-3.1h10.8v2.8h-10.3c-0.4,0-0.7,0.3-0.7,0.7v2.6c0,0.4,0.3,0.7,0.7,0.7h7.5
				C866,554.6,867.4,556,867.4,557.7z"/>
			<path class="st0" d="M870.5,547.8h14.7v2.8h-5.9v13.6h-3v-13.6h-5.8V547.8z"/>
		</g>
		<g>
			<path class="st1" d="M690.6,466.1H702L685.1,529h-11.4l7-26h-38.1l-7,26h-11.4l16.9-62.9h11.4l-7,26h38.1L690.6,466.1z"/>
			<path class="st1" d="M772.3,478.2l-10.4,38.8c-1.8,6.6-8.6,12-15.3,12h-37.4c-6.6,0-10.6-5.4-8.8-12l10.4-38.8
				c1.7-6.6,8.6-12,15.3-12h37.4C770.2,466.1,774,471.5,772.3,478.2z M760.7,479.5c0.4-1.5-0.5-2.7-2-2.7h-33.5
				c-1.4,0-3,1.2-3.3,2.7l-9.7,36.1c-0.5,1.5,0.4,2.7,1.9,2.7h33.5c1.4,0,3-1.2,3.4-2.7L760.7,479.5z"/>
			<path class="st1" d="M855.9,466.1L839.1,529h-11.4l11.7-43.7l-23.9,25.7H804l-10.1-25.7L782.2,529h-11.4l16.3-60.8l0.6-2.1h11.4
				h0.6l13.2,33.1l31-33.1h0.6H855.9z"/>
			<path class="st1" d="M880,466.1h38.8l-2.9,10.7h-36.8c-1.4,0-3,1.2-3.3,2.7l-3.4,12.7h34l-2.9,10.8h-34l-3.4,12.7
				c-0.5,1.5,0.4,2.7,1.9,2.7h36.8l-2.9,10.7h-38.8c-6.6,0-10.6-5.4-8.8-12l10.4-38.8C866.4,471.5,873.4,466.1,880,466.1z"/>
		</g>
		<g>
			<polygon class="st2" points="493,502.2 511.1,502.2 502.1,481.5 			"/>
			<polygon class="st1" points="420.7,494.3 401.3,466.1 383.9,466.1 383.9,529 400.6,529 400.6,490.5 414.7,510.9 426.7,510.9 
				440.7,490.5 440.7,529 457.4,529 457.4,466.1 440.1,466.1 			"/>
			<path class="st1" d="M492,466.1L464.6,529h16.7l5.6-12.7h30.3l5.6,12.7h16.7l-27.4-62.9H492z M493,502.2l9.1-20.7l9.1,20.7H493z"
				/>
			<radialGradient id="SVGID_1_" cx="537.6514" cy="454.0592" r="105.0217" gradientUnits="userSpaceOnUse">
				<stop  offset="0" style="stop-color:#AFFEEF"/>
				<stop  offset="0.3492" style="stop-color:#3CC2FD"/>
				<stop  offset="0.7067" style="stop-color:#5C6CF0"/>
				<stop  offset="1" style="stop-color:#8744F0"/>
			</radialGradient>
			<path class="st3" d="M563.4,506.9v-8.4h-0.6c-0.2,4.4-3.8,8-8.3,8c-3.6,0-6.6-2.3-7.8-5.5v6.9c2.1,1.7,4.9,2.8,7.8,2.8
				C558,510.6,561.1,509.2,563.4,506.9z"/>
			<radialGradient id="SVGID_2_" cx="533.4901" cy="462.6268" r="89.5228" gradientUnits="userSpaceOnUse">
				<stop  offset="0" style="stop-color:#AFFEEF"/>
				<stop  offset="0.3492" style="stop-color:#3CC2FD"/>
				<stop  offset="0.7067" style="stop-color:#5C6CF0"/>
				<stop  offset="1" style="stop-color:#8744F0"/>
			</radialGradient>
			<path class="st4" d="M607.4,471.6c-3.7-3.7-8.1-5.5-13.2-5.5h-47.5v14h40.1c2.6,0,4.8,0.9,6.6,2.7c1.8,1.8,2.7,4.1,2.7,6.7v16
				c0,2.6-0.9,4.9-2.7,6.7c-1.8,1.8-4,2.7-6.6,2.7h-23.4v-8.1c2.2-2.3,3.6-5.4,3.6-8.8c0-6.9-5.6-12.5-12.5-12.5
				s-12.5,5.6-12.5,12.5c0,3.9,1.8,7.5,4.7,9.8V529h47.5c5.1,0,9.5-1.8,13.2-5.5c3.7-3.7,5.5-8.1,5.5-13.3v-25.3
				C612.9,479.7,611,475.3,607.4,471.6z M546.2,498.1c0-4.6,3.7-8.3,8.3-8.3c4.6,0,8.3,3.7,8.3,8.3c0,0.1,0,0.3,0,0.4
				c-0.2,4.4-3.8,8-8.3,8c-3.6,0-6.6-2.3-7.8-5.5C546.4,500,546.2,499.1,546.2,498.1z"/>
		</g>
	</g>
	<g>
		<radialGradient id="SVGID_3_" cx="152.9264" cy="421.992" r="211.1492" gradientUnits="userSpaceOnUse">
			<stop  offset="0" style="stop-color:#AFFEEF"/>
			<stop  offset="0.3492" style="stop-color:#3CC2FD"/>
			<stop  offset="0.7067" style="stop-color:#5C6CF0"/>
			<stop  offset="1" style="stop-color:#8744F0"/>
		</radialGradient>
		<path class="st5" d="M301.8,462.5l-0.1,102.5l10.4-6c3.3-1.9,5.3-5.4,5.3-9.1v-63.9l32.5,18.5c3.8,2.2,8.6-0.6,8.6-5v-7.3
			l-53.7-31.4C303.9,461.5,302.9,462.1,301.8,462.5z"/>
		<radialGradient id="SVGID_4_" cx="152.9264" cy="421.992" r="211.1492" gradientUnits="userSpaceOnUse">
			<stop  offset="0" style="stop-color:#AFFEEF"/>
			<stop  offset="0.3492" style="stop-color:#3CC2FD"/>
			<stop  offset="0.7067" style="stop-color:#5C6CF0"/>
			<stop  offset="1" style="stop-color:#8744F0"/>
		</radialGradient>
		<path class="st6" d="M290.9,454.5c0-0.6,0.1-1.2,0.2-1.8l-66.6-38.9c-2.9-1.7-6.5-1.7-9.4,0l-68,39.7c-2.6,1.5-4.2,4.3-4.2,7.3
			l-0.1,64.5c3.4,1.1,5.9,4.4,5.7,8.3c-0.2,4.2-3.7,7.7-8,7.9c-4.7,0.2-8.7-3.6-8.7-8.3c0-3.7,2.4-6.9,5.8-7.9l0.1-63.2
			c0-1.4-1.5-2.3-2.7-1.6l-24.2,14.2c0.4,1.6,0.4,3.4-0.5,5.3c-1.3,2.8-4,4.8-7.1,5c-5.1,0.3-9.2-4-8.8-9.1c0.4-4.1,3.7-7.3,7.8-7.5
			c2.3-0.1,4.3,0.6,5.9,2L235.5,396l-7.9-4.6l-2.5-1.5c-1.6-0.9-3.5-1.4-5.3-1.4c-1.8,0-3.6,0.5-5.3,1.4l-2.5,1.5L84.9,464.7
			c-2.3,1.3-3.7,3.8-3.7,6.4v28.2c0,4.4,4.7,7.2,8.6,5l32.5-18.5v63.9c0,3.8,2,7.3,5.3,9.1l20.4,11.8c4.9,2.8,11-0.7,11-6.4v-95.4
			c0-2.3,1.3-4.5,3.3-5.7l32-18.5c2.1-1.2,4.6,0.3,4.6,2.7v46.5c0,3.3,2.7,6,6,6h14.9h14.8c3.3,0,6-2.7,6-6v-46.5
			c0-2.4,2.6-3.9,4.6-2.7l32,18.5c2,1.2,3.3,3.3,3.3,5.7v95.4c0,5.7,6.1,9.2,11,6.4l4.9-2.8l0.1-105.4
			C293.3,461.4,290.9,458.2,290.9,454.5z"/>
		<linearGradient id="SVGID_5_" gradientUnits="userSpaceOnUse" x1="281.4516" y1="517.6031" x2="298.0972" y2="517.9294">
			<stop  offset="0" style="stop-color:#6C4E9F"/>
			<stop  offset="0.1126" style="stop-color:#6C4E9F;stop-opacity:0.8874"/>
			<stop  offset="1" style="stop-color:#6C4E9F;stop-opacity:0"/>
		</linearGradient>
		<path class="st7" d="M286.6,469.3l-8.7-5.8c1.7,1.2,2.8,3.2,2.8,5.4v95.4c0,5.5,5.7,9,10.5,6.6v-93.2
			C291.2,474.4,289.4,471.2,286.6,469.3z"/>
		<linearGradient id="SVGID_6_" gradientUnits="userSpaceOnUse" x1="196.6618" y1="469.5481" x2="220.7271" y2="469.5481">
			<stop  offset="0" style="stop-color:#6C4E9F"/>
			<stop  offset="0.1126" style="stop-color:#6C4E9F;stop-opacity:0.8874"/>
			<stop  offset="1" style="stop-color:#6C4E9F;stop-opacity:0"/>
		</linearGradient>
		<path class="st8" d="M194.3,444.7c2.1-1.2,4.6,0.3,4.6,2.7v46.5c0,3.3,2.7,6,6,6h8.9v-52.7c0-6.2-6.8-10.1-12.1-6.9L194.3,444.7z"
			/>
		<radialGradient id="SVGID_7_" cx="126.4077" cy="385.029" r="251.0665" gradientUnits="userSpaceOnUse">
			<stop  offset="0" style="stop-color:#AFFEEF"/>
			<stop  offset="0.3492" style="stop-color:#3CC2FD"/>
			<stop  offset="0.7067" style="stop-color:#5C6CF0"/>
			<stop  offset="1" style="stop-color:#8744F0"/>
		</radialGradient>
		<circle class="st9" cx="299.2" cy="454.5" r="5.5"/>
		<radialGradient id="SVGID_8_" cx="152.9264" cy="421.992" r="211.1492" gradientUnits="userSpaceOnUse">
			<stop  offset="0" style="stop-color:#AFFEEF"/>
			<stop  offset="0.3492" style="stop-color:#3CC2FD"/>
			<stop  offset="0.7067" style="stop-color:#5C6CF0"/>
			<stop  offset="1" style="stop-color:#8744F0"/>
		</radialGradient>
		<path class="st10" d="M293.7,448.3c1.7-1.5,4.1-2.4,6.7-2c3.1,0.4,5.6,2.6,6.7,5.5c0.6,1.6,0.6,3.1,0.3,4.6l51.1,29.8v-15
			c0-2.6-1.4-5.1-3.7-6.4L240.6,399l-12.7,7.4c-1.4,0.8-1.4,2.7,0,3.5L293.7,448.3z"/>
		<radialGradient id="SVGID_9_" cx="152.9264" cy="421.992" r="211.1492" gradientUnits="userSpaceOnUse">
			<stop  offset="0" style="stop-color:#AFFEEF"/>
			<stop  offset="0.3492" style="stop-color:#3CC2FD"/>
			<stop  offset="0.7067" style="stop-color:#5C6CF0"/>
			<stop  offset="1" style="stop-color:#8744F0"/>
		</radialGradient>
		<path class="st11" d="M235.6,541.5h-15.8H204c-2.8,0-5.1,2.3-5.1,5.1v50.6c0,1.9,1,3.6,2.6,4.5l15.7,9.1c1.6,0.9,3.5,0.9,5.1,0
			l15.7-9.1c1.6-0.9,2.6-2.6,2.6-4.5v-50.6C240.7,543.8,238.4,541.5,235.6,541.5z"/>
		<linearGradient id="SVGID_10_" gradientUnits="userSpaceOnUse" x1="200.5784" y1="575.1009" x2="218.2185" y2="575.1009">
			<stop  offset="0" style="stop-color:#6C4E9F"/>
			<stop  offset="0.1126" style="stop-color:#6C4E9F;stop-opacity:0.8874"/>
			<stop  offset="1" style="stop-color:#6C4E9F;stop-opacity:0"/>
		</linearGradient>
		<path class="st12" d="M213.7,541.5H204c-2.8,0-5.1,2.3-5.1,5.1v50.6c0,1.9,1,3.6,2.6,4.5l12.2,7V541.5z"/>
	</g>
</g>
<g id="Layer_3">
</g>
<g id="Layer_4">
</g>
<g id="Layer_5">
</g>
<g id="Layer_6">
</g>
<g id="Layer_7">
</g>
<g id="Layer_8">
</g>
<g id="Layer_9">
</g>
</svg>
